<svg width="29" height="40" viewBox="0 0 29 40" fill="none" xmlns="http://www.w3.org/2000/svg">
<g clip-path="url(#clip0_9563_8893)">
<path fill-rule="evenodd" clip-rule="evenodd" d="M14.5011 17.4175L8.99621 22.9014L14.5011 28.3852L20.006 22.9014L14.5011 17.4175ZM3.16748 22.9014L14.5011 34.1916L25.8348 22.9014L14.5011 11.6111L3.16748 22.9014Z" fill="#66B1F1"/>
<path fill-rule="evenodd" clip-rule="evenodd" d="M14.5007 5.80585L6.08142 14.1929L14.5007 22.5799L22.92 14.1929L14.5007 5.80585ZM0.252686 14.1929L14.5007 28.3863L28.7487 14.1929L14.5007 -0.000553504L0.252686 14.1929Z" fill="#1C629E"/>
<path fill-rule="evenodd" clip-rule="evenodd" d="M14.4977 28.3824L11.5834 31.2856L14.4977 34.1888L17.4121 31.2856L14.4977 28.3824ZM5.75464 31.2856L14.4977 39.9952L23.2408 31.2856L14.4977 22.576L5.75464 31.2856Z" fill="#FFC540"/>
<path d="M3.16748 22.9014L6.08185 19.9982L17.4155 31.2884L14.5011 34.1916L3.16748 22.9014Z" fill="#66B1F1"/>
</g>
<defs>
<clipPath id="clip0_9563_8893">
<rect width="29" height="40" fill="white"/>
</clipPath>
</defs>
</svg>
