<svg width="48" height="48" viewBox="0 0 48 48" fill="none" xmlns="http://www.w3.org/2000/svg">
<circle cx="24" cy="24" r="24" fill="#7294C7"/>
<path d="M35.7675 30.1391C35.7675 30.0395 35.6678 30.0395 35.6678 29.9398C35.2693 29.1428 34.3727 28.1465 33.1771 27.0506C32.5794 26.5525 32.2805 26.154 32.0812 25.9547C31.7824 25.5562 31.7824 25.2573 31.882 24.8588C31.9816 24.56 32.3801 24.0618 33.0775 23.1652C33.476 22.667 33.6753 22.3681 33.9742 22.0693C35.4686 20.0767 36.166 18.7815 35.9667 18.1838L35.8671 18.0842C35.7675 17.9845 35.6678 17.8849 35.4686 17.8849C35.2693 17.7853 34.9704 17.7853 34.6716 17.8849H30.8857C30.7861 17.8849 30.7861 17.8849 30.5868 17.8849C30.4872 17.8849 30.3876 17.8849 30.3876 17.8849H30.288H30.1883L30.0887 17.9845C29.9891 18.0842 29.9891 18.0842 29.9891 18.1838C29.5905 19.2797 29.0924 20.1763 28.5943 21.1726C28.2954 21.6707 27.9965 22.1689 27.6976 22.5674C27.3987 22.9659 27.1995 23.2648 27.0002 23.464C26.801 23.6633 26.6017 23.7629 26.5021 23.9622C26.4025 24.0618 26.2032 24.1614 26.2032 24.0618C26.1036 24.0618 26.004 24.0618 26.004 23.9622C25.9043 23.8626 25.8047 23.7629 25.7051 23.6633C25.6055 23.5637 25.6054 23.3644 25.5058 23.1652C25.5058 22.9659 25.5058 22.7667 25.5058 22.667C25.5058 22.5674 25.5058 22.2685 25.5058 22.0693C25.5058 21.7704 25.5058 21.5711 25.5058 21.4715C25.5058 21.1726 25.5058 20.7741 25.5058 20.3756C25.5058 19.9771 25.5058 19.6782 25.5058 19.4789C25.5058 19.2797 25.5058 18.9808 25.5058 18.7816C25.5058 18.4827 25.5058 18.2834 25.5058 18.1838C25.5058 18.0842 25.4062 17.8849 25.4062 17.7853C25.3066 17.6857 25.2069 17.586 25.1073 17.4864C25.0077 17.3868 24.8084 17.3868 24.7088 17.2871C24.2107 17.1875 23.6129 17.0879 22.9155 17.0879C21.3215 17.0879 20.2256 17.1875 19.8271 17.3868C19.6278 17.4864 19.4286 17.586 19.3289 17.7853C19.1297 17.9845 19.1297 18.0842 19.2293 18.0842C19.7274 18.1838 20.1259 18.383 20.3252 18.6819L20.4248 18.8812C20.5245 18.9808 20.5244 19.1801 20.6241 19.4789C20.7237 19.7778 20.7237 20.0767 20.7237 20.4752C20.7237 21.073 20.7237 21.6708 20.7237 22.0693C20.7237 22.5674 20.6241 22.8663 20.6241 23.1652C20.6241 23.464 20.5245 23.6633 20.4248 23.7629C20.3252 23.9622 20.3252 24.0618 20.2256 24.0618C20.2256 24.0618 20.2256 24.1614 20.1259 24.1614C20.0263 24.1614 19.9267 24.2611 19.7274 24.2611C19.6278 24.2611 19.4286 24.1614 19.3289 24.0618C19.1297 23.9622 18.9304 23.7629 18.8308 23.5637C18.6315 23.3644 18.4323 23.0655 18.233 22.667C18.0338 22.2685 17.7349 21.87 17.5356 21.2722L17.3364 20.8737C17.2367 20.6745 17.0375 20.276 16.8382 19.7778C16.639 19.2797 16.4397 18.8812 16.2405 18.3831C16.1408 18.1838 16.0412 18.0842 15.9416 17.9845H15.842C15.842 17.9845 15.7423 17.8849 15.6427 17.8849C15.5431 17.8849 15.4435 17.7853 15.3438 17.7853H11.7572C11.3587 17.7853 11.1595 17.8849 11.0598 17.9845L10.9602 18.0842C10.9602 18.0842 10.9602 18.1838 10.9602 18.2834C10.9602 18.383 10.9602 18.4827 11.0598 18.6819C11.558 19.8775 12.1557 21.073 12.7535 22.2685C13.3513 23.3644 13.949 24.3607 14.3475 25.0581C14.8457 25.7555 15.2442 26.4529 15.7423 27.0506C16.2405 27.6484 16.5393 28.0469 16.639 28.2462C16.8382 28.4454 16.9378 28.545 17.0375 28.6447L17.3364 28.9436C17.5356 29.1428 17.8345 29.4417 18.233 29.7406C18.6315 30.0395 19.1297 30.3383 19.6278 30.6372C20.1259 30.9361 20.7237 31.1354 21.3215 31.3346C22.0189 31.5339 22.6166 31.6335 23.2144 31.5339H24.7088C25.0077 31.5339 25.207 31.4342 25.4062 31.235L25.5058 31.1354C25.5058 31.0357 25.6054 31.0357 25.6054 30.9361C25.6054 30.8365 25.6054 30.7369 25.6054 30.5376C25.6054 30.1391 25.6055 29.8402 25.7051 29.5413C25.8047 29.2424 25.8047 29.0432 25.9043 28.8439C26.004 28.6447 26.1036 28.545 26.2032 28.4454C26.3028 28.3458 26.4025 28.2462 26.4025 28.2462H26.5021C26.7013 28.1465 27.0002 28.2462 27.1995 28.4454C27.4984 28.6447 27.7972 28.9436 27.9965 29.2424C28.1958 29.5413 28.4947 29.8402 28.8932 30.2387C29.2917 30.6372 29.5906 30.9361 29.7898 31.0357L30.0887 31.235C30.2879 31.3346 30.4872 31.4343 30.7861 31.5339C31.085 31.6335 31.2842 31.6335 31.4835 31.6335L34.8708 31.5339C35.1697 31.5339 35.4686 31.4343 35.6678 31.3346C35.8671 31.235 35.9667 31.1354 35.9667 30.9361C35.9667 30.8365 35.9667 30.6372 35.9667 30.5376C35.7674 30.3384 35.7675 30.2387 35.7675 30.1391Z" fill="white"/>
</svg>
