<svg width="48" height="48" viewBox="0 0 48 48" fill="none" xmlns="http://www.w3.org/2000/svg">
<circle cx="24" cy="24" r="24" fill="#E45E5E"/>
<path d="M34.4557 22.6965C34.4557 22.2311 34.3781 21.6881 34.3781 21.0674C34.3006 20.4468 34.223 19.8262 34.1454 19.2832C33.9903 18.6626 33.7575 18.1971 33.2921 17.8093C32.9042 17.4214 32.3612 17.1887 31.8181 17.1111C30.0339 16.8784 27.3963 16.8008 23.8278 16.8008C20.2594 16.8008 17.5442 16.8784 15.8375 17.1111C15.2945 17.1887 14.7515 17.4214 14.3636 17.8093C13.9757 18.1971 13.6654 18.6626 13.5102 19.2832C13.3551 19.8262 13.2775 20.3693 13.2775 21.0674C13.2 21.6881 13.2 22.2311 13.2 22.6965C13.2 23.162 13.2 23.705 13.2 24.4808C13.2 25.2565 13.2 25.8771 13.2 26.265C13.2 26.7305 13.2775 27.2735 13.2775 27.8941C13.3551 28.5147 13.4327 29.1353 13.5102 29.6784C13.6654 30.299 13.8981 30.7644 14.3636 31.1523C14.7515 31.5402 15.2945 31.7729 15.8375 31.8505C17.6218 32.0832 20.2594 32.1608 23.8278 32.1608C27.3963 32.1608 30.1115 32.0832 31.8181 31.8505C32.3612 31.7729 32.9042 31.5402 33.2921 31.1523C33.6799 30.7644 33.9903 30.299 34.1454 29.6784C34.3006 29.1353 34.3781 28.5923 34.3781 27.8941C34.4557 27.2735 34.4557 26.7305 34.4557 26.265C34.4557 25.7996 34.4557 25.2565 34.4557 24.4808C34.4557 23.705 34.4557 23.0844 34.4557 22.6965ZM27.9393 25.1014L21.8109 28.9026C21.7333 28.9802 21.5781 29.0578 21.423 29.0578C21.2678 29.0578 21.1903 29.0577 21.0351 28.9802C20.8024 28.825 20.6472 28.5923 20.6472 28.282V20.602C20.6472 20.2917 20.8024 20.059 21.0351 19.9038C21.2678 19.7487 21.5781 19.7487 21.8109 19.9038L27.9393 23.705C28.1721 23.8602 28.3272 24.0929 28.3272 24.3256C28.3272 24.5584 28.1721 24.9462 27.9393 25.1014Z" fill="white"/>
</svg>
